#!OML:ASF E:\inclinewalkrobotboard\Project 1\Capture day 1\Session 1\subject1.ASF
:FULLY-SPECIFIED
:DEGREES
300
root 8.86894 24.7984 1.46923 -162.53 4.07132 176.451
lowerback 5.65444 -0.671943 -5.81628
upperback 3.74977 -0.917477 2.21404
thorax 0.85565 -0.492414 5.6167
lowerneck -6.15927 -0.208928 -3.10945
upperneck 19.5396 0.384426 3.78546
head 6.95691 0.632932 1.81816
rclavicle 8.74653e-015 -2.70347e-014
rhumerus -33.5188 -24.5244 -71.8237
rradius 26.0317
rwrist 14.3602
rhand -16.1673 -36.8722
rfingers 7.12502
rthumb 10.0387 -66.6127
lclavicle 8.74653e-015 -2.70347e-014
lhumerus -29.1486 4.60003 85.509
lradius 22.9862
lwrist -24.4145
lhand -26.4924 -19.9834
lfingers 7.12502
lthumb 0.070213 9.9963
rfemur -43.9293 8.08357 16.3354
rtibia 38.6217
rfoot -29.6069 -8.59508
rtoes -17.135
lfemur -18.0816 -4.60576 -25.7062
ltibia 40.1571
lfoot -3.92532 1.24958
ltoes -57.2055
301
root 8.9051 24.871 1.31669 -162.758 4.14668 176.459
lowerback 5.61465 -0.815048 -5.91288
upperback 3.83847 -1.09919 2.40645
thorax 1.00403 -0.59132 5.88113
lowerneck -7.07753 -0.0834995 -3.96146
upperneck 20.1746 0.683009 3.86078
head 7.31393 0.725514 2.02708
rclavicle 2.46493e-014 1.51076e-014
rhumerus -30.691 -22.1512 -73.7891
rradius 26.9805
rwrist 12.7861
rhand -16.233 -37.051
rfingers 7.12502
rthumb 9.97536 -66.7946
lclavicle 2.46493e-014 1.51076e-014
lhumerus -29.6331 6.62009 84.8075
lradius 22.7602
lwrist -24.2911
lhand -26.0976 -19.6887
lfingers 7.12502
lthumb 0.451493 10.2906
rfemur -42.3961 8.55483 16.4483
rtibia 37.4822
rfoot -29.7872 -8.81476
rtoes -16.7609
lfemur -20.5269 -4.17473 -25.4878
ltibia 44.133
lfoot -1.19256 1.94705
ltoes -62.2114
302
root 8.93801 24.9369 1.16796 -163.15 3.99427 176.647
lowerback 5.79102 -0.709188 -5.57092
upperback 3.76398 -0.954125 2.42326
thorax 0.798102 -0.503539 5.70059
lowerneck -7.04938 -0.154894 -4.07161
upperneck 20.3908 0.630954 3.85414
head 7.382 0.703056 2.04422
rclavicle 2.78299e-014 -1.51076e-014
rhumerus -28.7994 -20.7665 -75.2851
rradius 27.9206
rwrist 11.418
rhand -16.6939 -36.8033
rfingers 7.12502
rthumb 9.53066 -66.5678
lclavicle 2.78299e-014 -1.51076e-014
lhumerus -30.4173 7.28131 84.0897
lradius 22.1933
lwrist -24.6271
lhand -26.0453 -19.9227
lfingers 7.12502
lthumb 0.50195 10.0565
rfemur -40.6196 8.85976 16.8662
rtibia 36.3661
rfoot -29.9481 -8.96945
rtoes -16.4846
lfemur -22.8419 -3.96063 -25.0692
ltibia 48.3443
lfoot -0.943961 1.96164
ltoes -63.954
303
root 8.97148 24.9937 1.02046 -163.557 3.83051 176.863
lowerback 5.79835 -0.480791 -5.26373
upperback 3.72805 -0.637907 2.39733
thorax 0.705255 -0.335618 5.48319
lowerneck -6.80974 -0.273096 -3.45955
upperneck 20.7862 0.59086 3.10715
head 7.47723 0.688484 1.70062
rclavicle 6.36111e-015 4.77083e-015
rhumerus -26.9652 -19.9327 -76.5855
rradius 28.6556
rwrist 10.3656
rhand -16.8288 -36.4384
rfingers 7.12502
rthumb 9.40055 -66.2088
lclavicle 6.36111e-015 4.77083e-015
lhumerus -31.2173 7.46674 83.4162
lradius 21.6925
lwrist -24.9563
lhand -26.0901 -20.4447
lfingers 7.12502
lthumb 0.458684 9.53451
rfemur -38.8444 9.1488 17.3344
rtibia 35.2857
rfoot -30.7297 -8.76452
rtoes -12.9936
lfemur -25.2225 -3.84101 -24.6159
ltibia 52.3769
lfoot -3.03719 2.04971
ltoes -64.0137
304
root 9.00818 25.0427 0.874433 -163.924 3.7661 177.148
lowerback 5.6599 -0.196939 -4.96435
upperback 3.74692 -0.239492 2.35536
thorax 0.743849 -0.131486 5.2477
lowerneck -7.32067 -0.592824 -3.40394
upperneck 21.1155 0.0747414 3.54329
head 7.69455 0.494143 1.80056
rclavicle 5.56597e-015 4.29375e-014
rhumerus -25.0439 -19.1132 -77.8271
rradius 29.3516
rwrist 9.91777
rhand -16.1202 -37.3467
rfingers 7.12502
rthumb 10.0842 -67.085
lclavicle 5.56597e-015 4.29375e-014
lhumerus -31.9272 7.69801 82.7288
lradius 21.4539
lwrist -25.0624
lhand -25.5179 -20.1367
lfingers 7.12502
lthumb 1.01135 9.84063
rfemur -37.1344 9.62067 17.8558
rtibia 34.2042
rfoot -30.8872 -8.88336
rtoes -12.2327
lfemur -27.7963 -3.64793 -24.0356
ltibia 55.9384
lfoot -5.44512 2.25069
ltoes -64.5366
305
root 9.04465 25.0867 0.730098 -164.366 3.7154 177.231
lowerback 5.64117 0.119657 -4.78651
upperback 3.72262 0.186008 2.17667
thorax 0.673125 0.0877001 4.93783
lowerneck -7.12937 -0.865078 -2.91444
upperneck 21.7701 -0.173794 3.04658
head 7.88718 0.408025 1.54558
rclavicle -4.77083e-015 -1.03368e-014
rhumerus -23.2584 -18.5329 -79.0333
rradius 29.9732
rwrist 9.96468
rhand -16.0956 -38.318
rfingers 7.12502
rthumb 10.1079 -68.0552
lclavicle -4.77083e-015 -1.03368e-014
lhumerus -32.6275 7.95831 81.9145
lradius 21.1178
lwrist -25.5172
lhand -25.5419 -19.9384
lfingers 7.12502
lthumb 0.988169 10.039
rfemur -35.4145 10.0222 18.1909
rtibia 33.1975
rfoot -30.9997 -8.96069
rtoes -11.5992
lfemur -30.359 -3.47908 -23.6528
ltibia 58.8259
lfoot -7.03894 2.72688
ltoes -64.6882
306
root 9.07795 25.13 0.589391 -164.985 3.63617 177.076
lowerback 5.7837 0.391291 -4.9551
upperback 3.80545 0.54281 2.03931
thorax 0.637603 0.267612 4.87138
lowerneck -7.33221 -1.07494 -3.10906
upperneck 21.8893 -0.537929 3.60329
head 7.97666 0.278588 1.73458
rclavicle -5.1684e-015 -1.90833e-014
rhumerus -21.163 -17.8076 -80.1987
rradius 30.2145
rwrist 9.56745
rhand -17.4315 -37.9151
rfingers 7.12502
rthumb 8.81901 -67.7108
lclavicle -5.1684e-015 -1.90833e-014
lhumerus -33.1374 8.73977 81.0919
lradius 20.7554
lwrist -26.1259
lhand -25.6162 -20.0316
lfingers 7.12502
lthumb 0.916424 9.94621
rfemur -33.5548 10.2466 18.3185
rtibia 32.2296
rfoot -31.3055 -8.94071
rtoes -10.5341
lfemur -32.7038 -3.38471 -23.537
ltibia 60.9284
lfoot -8.35014 3.89427
ltoes -65.5677
307
root 9.10933 25.1738 0.455239 -165.531 3.51257 176.937
lowerback 5.9812 0.634819 -5.02108
upperback 3.88316 0.864826 1.86761
thorax 0.571412 0.433674 4.71043
lowerneck -7.61524 -1.2683 -3.09748
upperneck 22.1206 -0.829666 3.80744
head 8.1171 0.171366 1.77982
rclavicle 5.56597e-015 3.18055e-014
rhumerus -19.0043 -17.164 -81.359
rradius 30.2481
rwrist 9.40123
rhand -18.305 -37.2885
rfingers 7.12502
rthumb 7.97592 -67.118
lclavicle 5.56597e-015 3.18055e-014
lhumerus -33.5087 9.58164 80.1918
lradius 20.5047
lwrist -26.362
lhand -24.952 -19.5044
lfingers 7.12502
lthumb 1.55795 10.4697
rfemur -31.8119 10.3849 18.4572
rtibia 31.2839
rfoot -31.5973 -9.00102
rtoes -9.68032
lfemur -35.1261 -3.43544 -23.3428
ltibia 62.3883
lfoot -10.41 5.15829
ltoes -66.3319
308
root 9.14078 25.2164 0.325963 -165.898 3.29643 176.879
lowerback 6.17871 0.708506 -5.01062
upperback 3.81238 0.949714 1.78928
thorax 0.379163 0.483087 4.61468
lowerneck -7.63519 -1.33566 -3.5772
upperneck 22.3853 -0.907865 4.27513
head 8.2169 0.156423 2.01719
rclavicle -1.59028e-014 6.36111e-015
rhumerus -17.1173 -15.787 -82.4514
rradius 30.4552
rwrist 9.44535
rhand -18.4025 -37.1937
rfingers 7.12502
rthumb 7.88188 -67.0267
lclavicle -1.59028e-014 6.36111e-015
lhumerus -34.0062 10.8602 79.2403
lradius 20.1703
lwrist -26.248
lhand -23.792 -18.5457
lfingers 7.12502
lthumb 2.67826 11.4173
rfemur -30.2917 10.4055 18.6766
rtibia 30.3923
rfoot -31.8269 -9.18079
rtoes -9.13081
lfemur -37.6755 -3.7245 -22.9638
ltibia 63
lfoot -11.9971 6.73886
ltoes -66.9409
